<?xml version="1.0" standalone="no"?>
<!DOCTYPE svg PUBLIC "-//W3C//DTD SVG 20010904//EN"
 "http://www.w3.org/TR/2001/REC-SVG-20010904/DTD/svg10.dtd">
<svg version="1.0" xmlns="http://www.w3.org/2000/svg"
 width="360.000000pt" height="360.000000pt" viewBox="0 0 360.000000 360.000000"
 preserveAspectRatio="xMidYMid meet">
<metadata>
Created by potrace 1.14, written by Peter Selinger 2001-2017
</metadata>
<g transform="translate(0.000000,360.000000) scale(0.100000,-0.100000)"
fill="#000000" stroke="none">
<path d="M1797 3580 c-47 -37 -88 -125 -114 -243 -69 -322 -68 -314 -63 -647
2 -185 -3 -229 -31 -259 -38 -41 -73 -27 -235 96 -327 247 -541 401 -592 425
-153 73 -287 14 -266 -118 18 -119 105 -230 462 -593 117 -119 216 -227 219
-240 3 -13 2 -35 -3 -49 -15 -43 -58 -59 -174 -66 -58 -3 -121 -8 -140 -11
-19 -3 -57 -7 -85 -10 -27 -3 -63 -8 -78 -11 -16 -3 -38 -7 -50 -9 -12 -1 -60
-8 -107 -15 -47 -7 -166 -13 -265 -14 -158 -1 -184 -4 -212 -21 -45 -27 -66
-75 -60 -137 8 -70 27 -95 90 -112 74 -20 269 -54 352 -61 113 -10 146 -13
225 -20 182 -14 327 -42 396 -75 44 -22 58 -48 47 -88 -4 -17 -226 -324 -280
-387 -31 -37 -154 -208 -167 -233 -15 -29 -21 -63 -17 -107 2 -27 60 -91 95
-104 36 -14 83 -5 126 24 19 13 145 103 280 200 275 197 330 229 366 213 33
-15 40 -47 43 -183 3 -210 16 -325 60 -540 33 -161 54 -186 150 -181 87 4 121
51 151 204 10 53 34 153 53 222 46 166 49 177 52 285 4 105 20 146 102 254 69
93 72 93 253 -25 120 -78 173 -120 267 -214 108 -107 190 -172 268 -212 17 -9
48 -25 70 -37 21 -12 49 -21 60 -21 46 0 95 61 95 117 0 79 -84 205 -406 609
-62 78 -120 156 -129 174 -21 41 -14 71 23 92 24 14 267 82 687 193 236 62
264 76 278 139 11 44 -3 101 -30 133 -36 41 -76 52 -180 52 -54 0 -107 2 -118
4 -11 3 -41 7 -66 11 -25 4 -59 9 -75 12 -179 34 -240 41 -344 39 -137 -3
-175 8 -185 53 -8 38 4 60 58 115 94 93 174 205 294 412 100 171 112 200 117
272 7 106 -35 170 -106 160 -50 -7 -89 -28 -223 -120 -205 -141 -283 -202
-400 -316 -93 -91 -128 -112 -168 -100 -40 11 -55 26 -83 81 -50 98 -62 181
-69 458 -6 232 -24 347 -76 467 -35 82 -88 105 -142 63z"/>
</g>
</svg>
