<svg width="177" height="34" viewBox="0 0 177 34" fill="none" xmlns="http://www.w3.org/2000/svg">
<path d="M7.30621 26.3387C7.30621 28.8357 7.95884 30.0842 9.26409 30.0842C9.94509 30.0842 10.5693 29.8572 11.1368 29.4032V18.7626C11.1368 15.9819 10.6261 14.4071 9.60459 14.0382C9.12221 13.8679 8.35609 13.7828 7.30621 13.7828V26.3387ZM16.2869 30.0417C16.2869 30.3254 14.7121 31.0632 11.5625 32.2549C8.44121 33.4183 6.5259 34 5.81652 34C5.10715 34 4.32684 33.3616 3.47559 32.0847C2.62434 30.7794 2.19871 29.3465 2.19871 27.7859V10.0373C2.19871 9.27119 2.07102 8.73206 1.81565 8.41994C1.56027 8.07944 1.12046 7.90919 0.496212 7.90919V6.71744C4.18496 4.78794 7.47646 2.97194 10.3707 1.26944L11.0517 2.63144C10.768 2.77331 10.3707 3.05706 9.85996 3.48269C9.34921 3.87994 8.92359 4.29137 8.58309 4.717C7.73184 5.79525 7.30621 7.01537 7.30621 8.37737V11.9952C10.2288 10.4913 11.9313 9.73937 12.4137 9.73937C13.1515 9.73937 13.9743 10.3211 14.8823 11.4844C15.8187 12.6478 16.2869 13.8821 16.2869 15.1874V30.0417ZM30.9151 9.73937C31.057 9.73937 31.4117 9.96637 31.9792 10.4204C32.5467 10.846 33.1142 11.4561 33.6817 12.2506C34.2492 13.0167 34.5329 13.7686 34.5329 14.5064V21.6569C34.5329 22.1676 33.781 22.7919 32.2771 23.5296C30.7732 24.2674 29.3119 24.8774 27.8932 25.3598C26.5028 25.8138 25.7508 26.0408 25.6373 26.0408C25.6373 28.2257 26.5879 29.5735 28.489 30.0842C29.4254 30.3112 30.5462 30.4247 31.8515 30.4247V31.6591C27.198 33.2197 24.7152 34 24.403 34C23.5518 34 22.6863 33.4041 21.8067 32.2124C20.9271 30.9922 20.4873 29.5735 20.4873 27.9561V13.6551C20.4873 13.4565 22.1047 12.7613 25.3394 11.5696C28.5742 10.3494 30.4327 9.73937 30.9151 9.73937ZM29.4254 16.5068C29.4254 15.7123 29.241 15.0455 28.8721 14.5064C28.5032 13.9389 28.035 13.6551 27.4675 13.6551C26.9 13.6551 26.2758 13.8679 25.5948 14.2936V24.1255C28.1485 23.4161 29.4254 21.8839 29.4254 19.5287V16.5068ZM49.6426 15.3576V27.4028C49.6426 28.4527 49.8128 29.1904 50.1533 29.6161C50.4938 30.0133 51.0188 30.2971 51.7282 30.4673V31.4037L47.0888 34C46.4646 33.7446 45.8829 33.3332 45.3438 32.7657C44.8047 32.1698 44.5351 31.6307 44.5351 31.1483L39.2148 34C39.1297 33.9432 39.002 33.8723 38.8317 33.7872C38.6615 33.6737 38.3635 33.4609 37.9379 33.1487C37.5407 32.8082 37.186 32.4536 36.8738 32.0847C36.0226 31.1483 35.597 30.0842 35.597 28.8925V21.9122C35.597 21.4582 36.3347 20.8766 37.8102 20.1672C39.2857 19.4578 40.7612 18.8761 42.2367 18.4221L44.4925 17.6986C44.4925 16.0812 44.0669 14.9604 43.2157 14.3361C42.3644 13.6835 40.7187 13.3572 38.2784 13.3572V12.0803C42.6765 10.5197 45.1452 9.73937 45.6843 9.73937C46.6207 9.73937 47.5145 10.3494 48.3657 11.5696C49.217 12.7897 49.6426 14.0524 49.6426 15.3576ZM40.7045 27.3602C40.7045 28.098 40.9173 28.7081 41.3429 29.1904C41.7969 29.6444 42.2935 29.8714 42.8326 29.8714C43.3717 29.8714 43.9392 29.6586 44.5351 29.233V19.6139C43.8257 19.8692 43.2866 20.0821 42.9177 20.2523C42.5772 20.4226 42.2083 20.6921 41.8111 21.061C41.0733 21.742 40.7045 22.9196 40.7045 24.5937V27.3602ZM59.013 27.3602C59.013 28.098 59.2258 28.7081 59.6514 29.1904C60.1054 29.6444 60.602 29.8714 61.1411 29.8714C61.6802 29.8714 62.2477 29.6586 62.8436 29.233V15.9961C62.8436 14.2652 62.2619 13.2862 61.0986 13.0592V12.1229L65.3974 9.69681C66.0216 9.95219 66.6033 10.3778 67.1424 10.9737C67.6816 11.5412 67.9511 12.0803 67.9511 12.5911V27.0197C67.9511 27.9561 68.1498 28.7648 68.547 29.4458C68.9443 30.1268 69.4408 30.4673 70.0367 30.4673V31.4037C69.8381 31.4321 68.2916 32.2975 65.3974 34C64.7448 33.7162 64.1489 33.3048 63.6098 32.7657C63.099 32.1982 62.8436 31.6591 62.8436 31.1483L57.5233 34C57.4382 33.9432 57.3105 33.8723 57.1402 33.7872C56.97 33.6737 56.6721 33.4609 56.2464 33.1487C55.8492 32.8082 55.4945 32.4536 55.1824 32.0847C54.3311 31.1483 53.9055 30.0842 53.9055 28.8925V15.9961C53.9055 14.4354 53.2103 13.5132 51.8199 13.2295V12.2931L56.4592 9.69681C57.0835 9.95219 57.6652 10.3778 58.2043 10.9737C58.7434 11.5412 59.013 12.0803 59.013 12.5911V27.3602ZM88.8117 13.57V19.5287H94.8131V20.5502L92.2593 22.8912H88.8117V26.3813L86.4708 28.9351H85.4493V22.8912H79.448V21.9548L82.0017 19.5287H85.4493V16.1237L87.8754 13.57H88.8117ZM111.426 5.31287V10.3778H113.597L113.171 12.4634H111.426V27.7007C111.426 29.4316 112.008 30.4106 113.171 30.6376V31.5739L108.873 34C108.248 33.7446 107.667 33.3332 107.128 32.7657C106.588 32.1698 106.319 31.6165 106.319 31.1057V12.5059H104.574L104.999 10.7183C105.851 10.7183 106.872 10.1508 108.064 9.01581C109.284 7.85244 110.008 6.61812 110.235 5.31287H111.426ZM120.779 12.6336V27.7007C120.779 29.4316 121.36 30.4106 122.524 30.6376V31.5739L118.225 34C117.601 33.7446 117.019 33.3332 116.48 32.7657C115.941 32.1698 115.671 31.6165 115.671 31.1057V16.0386C115.671 14.3077 115.089 13.3288 113.926 13.1018V12.1654L118.225 9.73937C118.849 9.99475 119.431 10.4204 119.97 11.0162C120.509 11.5837 120.779 12.1229 120.779 12.6336ZM115.033 4.41906V1.82275C115.033 1.73762 115.614 1.48225 116.778 1.05662C117.969 0.602624 118.65 0.375624 118.821 0.375624C119.019 0.375624 119.289 0.616811 119.629 1.09918C119.998 1.58156 120.183 2.07812 120.183 2.58887V5.69594C120.183 5.78106 119.615 6.05062 118.48 6.50462C117.345 6.93025 116.65 7.14306 116.395 7.14306C116.139 7.14306 115.841 6.90187 115.501 6.4195C115.189 5.90875 115.033 5.24194 115.033 4.41906ZM125.023 31.1057V16.6771C125.023 15.7407 124.824 14.932 124.427 14.251C124.03 13.57 123.533 13.2295 122.938 13.2295V12.2931C123.136 12.2647 124.683 11.3993 127.577 9.69681C127.775 9.75356 128.017 9.83869 128.3 9.95219C128.584 10.0373 128.953 10.3069 129.407 10.7609C129.889 11.2149 130.131 11.7398 130.131 12.3357C130.301 12.2506 130.783 11.981 131.578 11.527C133.677 10.3352 134.926 9.73937 135.323 9.73937C136.231 9.73937 137.082 10.3352 137.877 11.527C138.671 12.7187 139.069 13.8112 139.069 14.8043V27.7007C139.069 29.2614 139.764 30.1836 141.154 30.4673V31.4037L136.515 34C135.891 33.7446 135.309 33.3332 134.77 32.7657C134.231 32.1698 133.961 31.6165 133.961 31.1057V18.7626C133.961 17.1736 133.777 15.9677 133.408 15.1448C133.067 14.2936 132.443 13.8679 131.535 13.8679L130.131 14.1233V27.7007C130.131 29.4316 130.712 30.4106 131.876 30.6376V31.5739L127.577 34C126.953 33.7446 126.371 33.3332 125.832 32.7657C125.293 32.1698 125.023 31.6165 125.023 31.1057ZM148.419 27.7007C148.419 29.4316 149.001 30.4106 150.164 30.6376V31.5739L145.865 34C145.241 33.7446 144.66 33.3332 144.12 32.7657C143.581 32.1698 143.312 31.6165 143.312 31.1057V10.0373C143.312 9.27119 143.184 8.73206 142.929 8.41994C142.673 8.07944 142.233 7.90919 141.609 7.90919V6.71744C145.298 4.78794 148.589 2.97194 151.484 1.26944L152.165 2.63144C151.881 2.77331 151.484 3.05706 150.973 3.48269C150.462 3.87994 150.037 4.29137 149.696 4.717C148.845 5.79525 148.419 7.01537 148.419 8.37737V12.2931C151.058 10.5906 152.619 9.73937 153.101 9.73937C153.896 9.73937 154.775 10.2643 155.74 11.3142C156.705 12.3357 157.187 13.4849 157.187 14.7617V19.4011C157.187 19.7132 155.712 20.4367 152.761 21.5717C154.548 26.3104 156.293 29.0344 157.996 29.7437C158.535 29.9991 159.131 30.1552 159.783 30.2119V31.4462C157.145 33.1487 155.485 34 154.804 34C153.896 34 152.732 32.6238 151.313 29.8714C149.923 27.0907 148.958 24.7781 148.419 22.9337V27.7007ZM148.419 20.8482C148.987 20.8482 150.008 20.4935 151.484 19.7841L152.25 19.4011V17.4857C152.25 15.0739 151.427 13.8679 149.781 13.8679L148.419 14.0807V20.8482ZM174.795 15.3576V27.4028C174.795 28.4527 174.965 29.1904 175.305 29.6161C175.646 30.0133 176.171 30.2971 176.88 30.4673V31.4037L172.241 34C171.617 33.7446 171.035 33.3332 170.496 32.7657C169.957 32.1698 169.687 31.6307 169.687 31.1483L164.367 34C164.282 33.9432 164.154 33.8723 163.984 33.7872C163.814 33.6737 163.516 33.4609 163.09 33.1487C162.693 32.8082 162.338 32.4536 162.026 32.0847C161.175 31.1483 160.749 30.0842 160.749 28.8925V21.9122C160.749 21.4582 161.487 20.8766 162.962 20.1672C164.438 19.4578 165.913 18.8761 167.389 18.4221L169.645 17.6986C169.645 16.0812 169.219 14.9604 168.368 14.3361C167.516 13.6835 165.871 13.3572 163.43 13.3572V12.0803C167.829 10.5197 170.297 9.73937 170.836 9.73937C171.773 9.73937 172.667 10.3494 173.518 11.5696C174.369 12.7897 174.795 14.0524 174.795 15.3576ZM165.857 27.3602C165.857 28.098 166.069 28.7081 166.495 29.1904C166.949 29.6444 167.446 29.8714 167.985 29.8714C168.524 29.8714 169.091 29.6586 169.687 29.233V19.6139C168.978 19.8692 168.439 20.0821 168.07 20.2523C167.729 20.4226 167.36 20.6921 166.963 21.061C166.225 21.742 165.857 22.9196 165.857 24.5937V27.3602Z" fill="#0055B8"/>
</svg>
