<svg width="364" height="100" viewBox="0 0 364 100" fill="none" xmlns="http://www.w3.org/2000/svg" preserveAspectRatio="none">
<path d="M0.83906 81.1273V12.3583C0.83906 11.7551 5.75113 9.64374 15.5753 6.02432C25.3994 2.31872 31.044 0.465922 32.509 0.465922C33.974 0.465922 36.1715 2.23254 39.1015 5.76579C42.1177 9.29903 43.6258 12.4876 43.6258 15.3314V87.9784C43.6258 88.6678 38.8861 90.8653 29.4066 94.5709C20.0134 98.1903 14.2395 100 12.0851 100C10.0169 100 7.60393 98.1472 4.84628 94.4416C2.1748 90.736 0.83906 86.2979 0.83906 81.1273ZM22.9434 88.1076C24.5807 88.1076 26.2612 87.4182 27.9847 86.0394V22.0532C27.9847 15.6761 25.7872 12.4876 21.3922 12.4876C19.6687 12.4876 17.9882 13.1339 16.3509 14.4265V78.542C16.3509 84.9191 18.5484 88.1076 22.9434 88.1076ZM19.324 57.4718V47.0013C19.324 46.9152 19.9703 46.6135 21.2629 46.0965C22.5556 45.5794 23.2881 45.3209 23.4604 45.3209C23.719 45.3209 24.0206 45.5794 24.3653 46.0965C24.7962 46.6135 25.0116 47.1737 25.0116 47.7769V58.8937C25.0116 58.9799 24.3653 59.2815 23.0726 59.7986C21.8662 60.2295 21.0906 60.4449 20.7459 60.4449C20.4873 60.4449 20.1857 60.1864 19.841 59.6693C19.4963 59.1522 19.324 58.4197 19.324 57.4718ZM99.2956 19.3386V55.9206C99.2956 62.4701 97.7875 69.4073 94.7713 76.7323C91.7551 83.9711 88.6959 89.6588 85.5935 93.7953C82.4911 97.9318 80.4229 100 79.3888 100C77.2344 100 74.4336 99.4829 70.9865 98.4488C67.6257 97.3285 64.7818 96.2082 62.4551 95.0879L58.9649 93.5367V89.6588H62.7136C67.1086 89.6588 71.676 86.2117 76.4157 79.3176C81.2416 72.4235 83.6545 65.5724 83.6545 58.7645C74.1751 62.9871 68.746 65.0984 67.3671 65.0984C66.0745 65.0984 63.9201 63.1164 60.9039 59.1522C57.9739 55.1881 56.5089 51.7841 56.5089 48.9403V12.4876C56.5089 11.7982 61.2055 9.64374 70.5987 6.02432C80.0782 2.31872 85.852 0.465922 87.9203 0.465922C90.0747 0.465922 92.4876 2.31872 95.1591 6.02432C97.9168 9.72992 99.2956 14.168 99.2956 19.3386ZM77.1913 12.3583C75.5539 12.3583 73.8735 13.0477 72.1499 14.4265V43.1234C72.1499 45.881 72.9255 48.1647 74.4767 49.9744C76.1141 51.7841 79.2164 52.689 83.7838 52.689V21.9239C83.7838 15.5468 81.5863 12.3583 77.1913 12.3583ZM112.179 91.727V83.8419C112.179 83.5833 113.945 82.8078 117.479 81.5151C121.098 80.1363 123.166 79.4469 123.683 79.4469C124.286 79.4469 125.105 80.1794 126.139 81.6444C127.26 83.1094 127.82 84.6175 127.82 86.1686V95.605C127.82 95.8635 126.096 96.6822 122.649 98.061C119.202 99.3537 117.091 100 116.315 100C115.54 100 114.635 99.2675 113.601 97.8025C112.653 96.2513 112.179 94.2262 112.179 91.727ZM163.588 21.6654C163.588 17.8736 163.2 15.2452 162.424 13.7802C161.735 12.229 160.529 11.4534 158.805 11.4534C157.168 11.4534 155.66 12.3152 154.281 14.0388V25.9311C154.281 27.0514 154.238 27.9132 154.151 28.5164C154.065 29.0335 153.721 29.6367 153.117 30.3261C152.6 31.0156 151.738 31.5757 150.532 32.0066L137.088 37.1772L135.279 35.3675C137.606 32.7822 138.769 30.0245 138.769 27.0945V12.3583C138.769 11.8412 143.293 9.72992 152.342 6.02432C161.476 2.31872 166.819 0.465922 168.371 0.465922C170.008 0.465922 172.205 2.4049 174.963 6.28285C177.721 10.0746 179.1 13.0046 179.1 15.0729V32.7822C179.1 37.3495 176.557 44.2006 171.473 53.3353C166.475 62.47 161.476 70.4414 156.478 77.2494L148.981 87.5906C158.546 87.4182 164.105 87.332 165.656 87.332C170.396 87.332 173.283 85.9101 174.317 83.0663C175.265 83.1525 175.954 83.1955 176.385 83.1955H177.161L184.399 93.666C184.141 94.0969 183.753 94.7001 183.236 95.4757C182.805 96.1651 181.728 97.1131 180.004 98.3196C178.367 99.4399 176.557 100 174.575 100H138.252C136.442 95.3465 135.537 91.3392 135.537 87.9784C135.537 86.8581 137.864 82.8078 142.518 75.8274C147.171 68.7609 151.825 61.3928 156.478 53.7231C161.218 45.9672 163.588 40.7104 163.588 37.9528V21.6654ZM213.577 21.6654C213.577 17.8736 213.189 15.2452 212.414 13.7802C211.724 12.229 210.518 11.4534 208.794 11.4534C207.157 11.4534 205.649 12.3152 204.27 14.0388V25.9311C204.27 27.0514 204.227 27.9132 204.141 28.5164C204.054 29.0335 203.71 29.6367 203.107 30.3261C202.589 31.0156 201.728 31.5757 200.521 32.0066L187.078 37.1772L185.268 35.3675C187.595 32.7822 188.758 30.0245 188.758 27.0945V12.3583C188.758 11.8412 193.282 9.72992 202.331 6.02432C211.466 2.31872 216.809 0.465922 218.36 0.465922C219.997 0.465922 222.195 2.4049 224.952 6.28285C227.71 10.0746 229.089 13.0046 229.089 15.0729V32.7822C229.089 37.3495 226.547 44.2006 221.462 53.3353C216.464 62.47 211.466 70.4414 206.467 77.2494L198.97 87.5906C208.536 87.4182 214.094 87.332 215.645 87.332C220.385 87.332 223.272 85.9101 224.306 83.0663C225.254 83.1525 225.943 83.1955 226.374 83.1955H227.15L234.389 93.666C234.13 94.0969 233.742 94.7001 233.225 95.4757C232.794 96.1651 231.717 97.1131 229.994 98.3196C228.356 99.4399 226.547 100 224.565 100H188.241C186.431 95.3465 185.526 91.3392 185.526 87.9784C185.526 86.8581 187.853 82.8078 192.507 75.8274C197.16 68.7609 201.814 61.3928 206.467 53.7231C211.207 45.9672 213.577 40.7104 213.577 37.9528V21.6654ZM240.686 91.727V83.8419C240.686 83.5833 242.453 82.8078 245.986 81.5151C249.606 80.1363 251.674 79.4469 252.191 79.4469C252.794 79.4469 253.613 80.1794 254.647 81.6444C255.767 83.1094 256.327 84.6175 256.327 86.1686V95.605C256.327 95.8635 254.604 96.6822 251.157 98.061C247.71 99.3537 245.598 100 244.823 100C244.047 100 243.142 99.2675 242.108 97.8025C241.16 96.2513 240.686 94.2262 240.686 91.727ZM292.095 21.6654C292.095 17.8736 291.708 15.2452 290.932 13.7802C290.243 12.229 289.036 11.4534 287.313 11.4534C285.675 11.4534 284.167 12.3152 282.788 14.0388V25.9311C282.788 27.0514 282.745 27.9132 282.659 28.5164C282.573 29.0335 282.228 29.6367 281.625 30.3261C281.108 31.0156 280.246 31.5757 279.04 32.0066L265.596 37.1772L263.786 35.3675C266.113 32.7822 267.277 30.0245 267.277 27.0945V12.3583C267.277 11.8412 271.801 9.72992 280.849 6.02432C289.984 2.31872 295.327 0.465922 296.878 0.465922C298.516 0.465922 300.713 2.4049 303.471 6.28285C306.228 10.0746 307.607 13.0046 307.607 15.0729V32.7822C307.607 37.3495 305.065 44.2006 299.981 53.3353C294.982 62.47 289.984 70.4414 284.986 77.2494L277.488 87.5906C287.054 87.4182 292.612 87.332 294.164 87.332C298.903 87.332 301.79 85.9101 302.824 83.0663C303.772 83.1525 304.462 83.1955 304.893 83.1955H305.668L312.907 93.666C312.649 94.0969 312.261 94.7001 311.744 95.4757C311.313 96.1651 310.236 97.1131 308.512 98.3196C306.875 99.4399 305.065 100 303.083 100H266.759C264.95 95.3465 264.045 91.3392 264.045 87.9784C264.045 86.8581 266.372 82.8078 271.025 75.8274C275.679 68.7609 280.332 61.3928 284.986 53.7231C289.726 45.9672 292.095 40.7104 292.095 37.9528V21.6654ZM342.472 83.4541V64.0643H315.844C315.499 64.0643 314.896 63.2887 314.034 61.7376C313.259 60.1864 312.871 58.9799 312.871 58.1181C312.871 57.1702 315.111 51.9996 319.593 42.6063C324.074 33.1269 328.9 23.7336 334.07 14.4265C339.327 5.11946 342.731 0.465922 344.282 0.465922C350.056 1.93093 354.192 3.91299 356.692 6.41211C357.64 7.36006 358.113 8.308 358.113 9.25595V56.4377H363.284V60.8327L358.113 64.0643V78.4127C358.113 80.7395 358.501 82.42 359.277 83.4541C360.052 84.402 361.388 84.876 363.284 84.876V88.4954C345.79 96.1651 337 100 336.914 100L334.846 95.8635C335.449 95.8635 336.268 95.5619 337.302 94.9587C338.336 94.3554 339.198 93.666 339.887 92.8904C341.611 90.736 342.472 87.5906 342.472 83.4541ZM342.602 56.4377V21.7947L325.151 56.6962C336.699 56.61 342.516 56.5239 342.602 56.4377Z" fill="#0055B8"/>
</svg>
