<svg width="1408" height="242" viewBox="0 0 1408 242" fill="none" xmlns="http://www.w3.org/2000/svg" preserveAspectRatio="none">
<path d="M20.3627 170.316C15.2117 170.316 10.7818 166.401 7.0731 158.571C3.36437 150.742 1.51001 141.161 1.51001 129.829V96.4501C1.51001 92.5353 12.3271 85.839 33.9614 76.3611C55.5957 66.6772 68.0611 61.8352 71.3578 61.8352C73.2122 61.8352 74.8605 62.9685 76.3028 65.2349C77.745 67.2953 78.8783 69.0467 79.7024 70.4889C80.5266 71.7252 81.7628 73.9916 83.4112 77.2883C85.2655 80.3789 86.8108 82.9544 88.0471 85.0148C90.7256 89.9598 94.1253 92.4323 98.2461 92.4323V98.6135C94.9494 100.056 90.6226 102.219 85.2655 105.104C72.0789 112.315 64.9705 115.921 63.9403 115.921C60.8497 115.921 57.45 110.873 53.7413 100.777C50.2386 90.6809 47.045 85.6329 44.1604 85.6329C40.4517 85.6329 38.5973 88.7235 38.5973 94.9048V132.919C38.5973 141.161 40.4517 145.282 44.1604 145.282C44.9846 145.282 51.3718 142.603 63.3222 137.246C75.2726 131.889 82.484 129.211 84.9565 129.211C89.9014 129.211 94.2283 133.228 97.937 141.264C101.852 149.093 103.809 159.189 103.809 171.552V206.476C103.809 210.391 91.9619 217.19 68.2672 226.874C44.7785 236.352 31.2829 241.091 27.7802 241.091C26.3379 241.091 24.8956 239.854 23.4533 237.382C22.2171 234.703 20.3627 230.686 17.8902 225.328C15.6238 219.971 13.3573 215.439 11.0909 211.73C8.41237 206.785 5.0127 204.312 0.891883 204.312V198.131C4.18853 196.689 8.61841 194.525 14.1815 191.641C27.1621 184.429 34.1675 180.824 35.1977 180.824C38.2883 180.824 42.1 186.902 46.6329 199.058C51.3718 211.215 55.1836 217.293 58.0682 217.293C60.1286 217.293 62.086 216.469 63.9403 214.82C65.7947 213.172 66.7219 210.906 66.7219 208.021V169.388C66.7219 160.117 64.1464 155.481 58.9954 155.481C57.347 155.481 50.8567 157.953 39.5245 162.898C28.1923 167.843 21.805 170.316 20.3627 170.316ZM227.209 102.631V190.096C227.209 197.719 228.445 203.076 230.918 206.167C233.39 209.051 237.202 211.112 242.353 212.348V219.147L208.665 238C204.132 236.146 199.909 233.158 195.994 229.037C192.079 224.71 190.122 220.796 190.122 217.293L151.489 238C150.871 237.588 149.944 237.073 148.708 236.455C147.471 235.631 145.308 234.085 142.217 231.819C139.333 229.346 136.757 226.771 134.491 224.092C128.31 217.293 125.219 209.566 125.219 200.913V150.227C125.219 146.93 130.576 142.706 141.29 137.555C152.004 132.404 162.718 128.18 173.432 124.884L189.813 119.63C189.813 107.885 186.722 99.7467 180.541 95.2138C174.36 90.4749 162.409 88.1054 144.69 88.1054V78.8336C176.626 67.5013 194.552 61.8352 198.466 61.8352C205.266 61.8352 211.756 66.2651 217.937 75.1249C224.118 83.9846 227.209 93.1534 227.209 102.631ZM162.306 189.786C162.306 195.144 163.852 199.573 166.942 203.076C170.239 206.373 173.845 208.021 177.759 208.021C181.674 208.021 185.795 206.476 190.122 203.385V133.537C184.971 135.392 181.056 136.937 178.377 138.173C175.905 139.41 173.226 141.367 170.342 144.045C164.985 148.99 162.306 157.541 162.306 169.698V189.786ZM360.463 104.177V209.257C360.463 211.112 349.439 216.366 327.393 225.019C305.347 233.673 291.13 238 284.743 238C278.355 238 272.277 233.158 266.508 223.474C260.945 213.79 258.163 205.24 258.163 197.822V107.267C258.163 95.935 253.115 89.2386 243.019 87.1782V80.3789L276.707 61.5262C281.24 63.3805 285.258 66.2651 288.76 70.1799C292.469 74.0946 294.633 77.5973 295.251 80.688L332.956 61.8352C339.137 61.8352 345.216 66.2651 351.191 75.1249C357.372 83.9846 360.463 93.6685 360.463 104.177ZM295.251 196.586C295.251 201.737 296.693 206.064 299.578 209.566C302.462 213.069 305.553 214.82 308.849 214.82C312.146 214.82 316.885 213.275 323.066 210.185V122.72C323.066 109.534 321.109 100.983 317.194 97.0682C313.279 93.1534 305.965 91.196 295.251 91.196V196.586ZM466.683 61.8352C467.713 61.8352 470.289 63.4836 474.41 66.7802C478.53 69.8708 482.651 74.3007 486.772 80.0698C490.893 85.6329 492.953 91.093 492.953 96.4501V148.372C492.953 152.081 487.493 156.614 476.573 161.971C465.653 167.328 455.042 171.758 444.74 175.261C434.644 178.557 429.184 180.206 428.359 180.206C428.359 196.071 435.262 205.858 449.067 209.566C455.866 211.215 464.004 212.039 473.482 212.039V221.002C439.692 232.334 421.663 238 419.397 238C413.215 238 406.931 233.673 400.544 225.019C394.157 216.16 390.963 205.858 390.963 194.113V90.2688C390.963 88.8266 402.707 83.7786 426.196 75.1249C449.685 66.2651 463.18 61.8352 466.683 61.8352ZM455.866 110.976C455.866 105.207 454.527 100.365 451.848 96.4501C449.17 92.3293 445.77 90.2688 441.649 90.2688C437.528 90.2688 432.995 91.8142 428.05 94.9048V166.298C446.594 161.147 455.866 150.021 455.866 132.919V110.976ZM618.195 29.6929V66.4712H633.957L630.867 81.6151H618.195V192.259C618.195 204.827 622.419 211.936 630.867 213.584V220.384L599.652 238C595.119 236.146 590.895 233.158 586.98 229.037C583.065 224.71 581.108 220.693 581.108 216.984V81.9242H568.437L571.527 68.9436C577.708 68.9436 585.126 64.8228 593.78 56.5812C602.639 48.1335 607.893 39.1708 609.542 29.6929H618.195ZM649.017 216.984V63.9987C649.017 58.4356 648.09 54.5208 646.235 52.2544C644.381 49.7819 641.187 48.5456 636.654 48.5456V39.8919C663.44 25.8811 687.34 12.6945 708.357 0.332094L713.302 10.222C711.241 11.2522 708.357 13.3127 704.648 16.4033C700.939 19.2878 697.849 22.2754 695.376 25.366C689.195 33.1956 686.104 42.0553 686.104 51.9453V78.2155C707.326 67.2953 719.689 61.8352 723.192 61.8352C729.785 61.8352 736.069 65.956 742.044 74.1977C748.019 82.4393 751.007 91.5051 751.007 101.395V192.259C751.007 203.591 756.055 210.288 766.151 212.348V219.147L732.463 238C727.93 236.146 723.707 233.158 719.792 229.037C715.877 224.71 713.92 220.693 713.92 216.984V127.356C713.92 107.164 710.211 95.7289 702.794 93.0504C699.291 91.8142 693.728 91.196 686.104 91.196V192.259C686.104 204.827 690.328 211.936 698.776 213.584V220.384L667.561 238C663.028 236.146 658.804 233.158 654.889 229.037C650.974 224.71 649.017 220.693 649.017 216.984ZM857.536 61.8352C858.567 61.8352 861.142 63.4836 865.263 66.7802C869.384 69.8708 873.505 74.3007 877.625 80.0698C881.746 85.6329 883.807 91.093 883.807 96.4501V148.372C883.807 152.081 878.347 156.614 867.426 161.971C856.506 167.328 845.895 171.758 835.593 175.261C825.497 178.557 820.037 180.206 819.213 180.206C819.213 196.071 826.115 205.858 839.92 209.566C846.719 211.215 854.858 212.039 864.336 212.039V221.002C830.545 232.334 812.517 238 810.25 238C804.069 238 797.785 233.673 791.397 225.019C785.01 216.16 781.817 205.858 781.817 194.113V90.2688C781.817 88.8266 793.561 83.7786 817.049 75.1249C840.538 66.2651 854.034 61.8352 857.536 61.8352ZM846.719 110.976C846.719 105.207 845.38 100.365 842.702 96.4501C840.023 92.3293 836.623 90.2688 832.503 90.2688C828.382 90.2688 823.849 91.8142 818.904 94.9048V166.298C837.447 161.147 846.719 150.021 846.719 132.919V110.976ZM1030.06 0.0230374C1035.63 0.0230374 1044.38 13.5187 1056.34 40.51C1068.29 67.5014 1074.26 86.148 1074.26 96.4501V190.714C1074.26 195.453 1075.5 200.089 1077.97 204.621C1080.65 209.154 1084.36 211.73 1089.1 212.348V219.147C1087.65 219.353 1076.42 225.638 1055.41 238C1050.67 235.94 1046.34 232.952 1042.43 229.037C1038.72 224.916 1036.86 221.105 1036.86 217.602C1014.82 231.201 1001.94 238 998.232 238C996.789 238 994.008 236.455 989.887 233.364C985.972 230.067 981.954 225.432 977.834 219.456C973.919 213.275 971.961 206.991 971.961 200.604V90.2688C971.961 88.2084 989.372 81.1 1024.19 68.9436C1016.78 52.6664 1010.8 41.2312 1006.27 34.6379C1001.73 28.0446 997.304 24.7479 992.978 24.7479H982.779V15.4761C1005.65 5.17405 1021.41 0.0230374 1030.06 0.0230374ZM1024.81 209.566C1028.73 209.566 1032.74 207.918 1036.86 204.621V97.0682C1036.86 95.8319 1035.94 93.2564 1034.08 89.3417C1032.43 85.2208 1031.2 83.1604 1030.37 83.1604C1024.4 83.1604 1018.32 85.0148 1012.14 88.7235L1009.05 90.5779V186.696C1009.05 201.943 1014.3 209.566 1024.81 209.566ZM1206.61 102.631V190.096C1206.61 197.719 1207.84 203.076 1210.32 206.167C1212.79 209.051 1216.6 211.112 1221.75 212.348V219.147L1188.06 238C1183.53 236.146 1179.31 233.158 1175.39 229.037C1171.48 224.71 1169.52 220.796 1169.52 217.293L1130.89 238C1130.27 237.588 1129.34 237.073 1128.1 236.455C1126.87 235.631 1124.71 234.085 1121.61 231.819C1118.73 229.346 1116.15 226.771 1113.89 224.092C1107.71 217.293 1104.62 209.566 1104.62 200.913V150.227C1104.62 146.93 1109.97 142.706 1120.69 137.555C1131.4 132.404 1142.12 128.18 1152.83 124.884L1169.21 119.63C1169.21 107.885 1166.12 99.7467 1159.94 95.2138C1153.76 90.4749 1141.81 88.1054 1124.09 88.1054V78.8336C1156.02 67.5013 1173.95 61.8352 1177.86 61.8352C1184.66 61.8352 1191.15 66.2651 1197.33 75.1249C1203.52 83.9846 1206.61 93.1534 1206.61 102.631ZM1141.7 189.786C1141.7 195.144 1143.25 199.573 1146.34 203.076C1149.64 206.373 1153.24 208.021 1157.16 208.021C1161.07 208.021 1165.19 206.476 1169.52 203.385V133.537C1164.37 135.392 1160.45 136.937 1157.77 138.173C1155.3 139.41 1152.62 141.367 1149.74 144.045C1144.38 148.99 1141.7 157.541 1141.7 169.698V189.786ZM1274.65 29.6929V66.4712H1290.41L1287.32 81.6151H1274.65V192.259C1274.65 204.827 1278.87 211.936 1287.32 213.584V220.384L1256.1 238C1251.57 236.146 1247.35 233.158 1243.43 229.037C1239.52 224.71 1237.56 220.693 1237.56 216.984V81.9242H1224.89L1227.98 68.9436C1234.16 68.9436 1241.58 64.8228 1250.23 56.5812C1259.09 48.1335 1264.35 39.1708 1265.99 29.6929H1274.65ZM1381.19 61.8352C1382.22 61.8352 1384.8 63.4836 1388.92 66.7802C1393.04 69.8708 1397.16 74.3007 1401.28 80.0698C1405.4 85.6329 1407.46 91.093 1407.46 96.4501V148.372C1407.46 152.081 1402 156.614 1391.08 161.971C1380.16 167.328 1369.55 171.758 1359.25 175.261C1349.15 178.557 1343.69 180.206 1342.87 180.206C1342.87 196.071 1349.77 205.858 1363.57 209.566C1370.37 211.215 1378.51 212.039 1387.99 212.039V221.002C1354.2 232.334 1336.17 238 1333.9 238C1327.72 238 1321.44 233.673 1315.05 225.019C1308.66 216.16 1305.47 205.858 1305.47 194.113V90.2688C1305.47 88.8266 1317.21 83.7786 1340.7 75.1249C1364.19 66.2651 1377.69 61.8352 1381.19 61.8352ZM1370.37 110.976C1370.37 105.207 1369.03 100.365 1366.35 96.4501C1363.68 92.3293 1360.28 90.2688 1356.16 90.2688C1352.03 90.2688 1347.5 91.8142 1342.56 94.9048V166.298C1361.1 161.147 1370.37 150.021 1370.37 132.919V110.976Z" fill="#0055B8"/>
</svg>
